{
    "asset" : {
        "generator" : "Khronos glTF Blender I/O v1.2.75",
        "version" : "2.0"
    },
    "scene" : 0,
    "scenes" : [
        {
            "name" : "Scene",
            "nodes" : [
                0,
                1,
                2,
                3,
                4
            ]
        }
    ],
    "nodes" : [
        {
            "mesh" : 0,
            "name" : "polygon5",
            "rotation" : [
                0,
                0.7071067094802856,
                -0.7071068286895752,
                -1.1520230458472724e-07
            ],
            "scale" : [
                0.09936228394508362,
                0.09936228394508362,
                0.09936228394508362
            ]
        },
        {
            "mesh" : 1,
            "name" : "polygon0",
            "rotation" : [
                0,
                0.7071067094802856,
                -0.7071068286895752,
                -1.1520230458472724e-07
            ],
            "scale" : [
                0.09936228394508362,
                0.09936228394508362,
                0.09936228394508362
            ]
        },
        {
            "mesh" : 2,
            "name" : "polygon14",
            "rotation" : [
                0,
                0.7071067094802856,
                -0.7071068286895752,
                -1.1520230458472724e-07
            ],
            "scale" : [
                0.09936228394508362,
                0.09936228394508362,
                0.09936228394508362
            ]
        },
        {
            "mesh" : 3,
            "name" : "polygon36",
            "rotation" : [
                0,
                0.7071067094802856,
                -0.7071068286895752,
                -1.1520230458472724e-07
            ],
            "scale" : [
                0.09936228394508362,
                0.09936228394508362,
                0.09936228394508362
            ]
        },
        {
            "mesh" : 4,
            "name" : "polygon37",
            "rotation" : [
                0,
                0.7071067094802856,
                -0.7071068286895752,
                -1.1520230458472724e-07
            ],
            "scale" : [
                0.09936228394508362,
                0.09936228394508362,
                0.09936228394508362
            ]
        }
    ],
    "materials" : [
        {
            "doubleSided" : true,
            "emissiveFactor" : [
                0,
                0,
                0
            ],
            "name" : "cockpit",
            "pbrMetallicRoughness" : {
                "baseColorFactor" : [
                    1,
                    1,
                    1,
                    1
                ],
                "metallicFactor" : 0,
                "roughnessFactor" : 0.6732679605484009
            }
        },
        {
            "doubleSided" : true,
            "emissiveFactor" : [
                0,
                0,
                0
            ],
            "name" : "body_01",
            "pbrMetallicRoughness" : {
                "baseColorFactor" : [
                    1,
                    1,
                    1,
                    1
                ],
                "metallicFactor" : 0,
                "roughnessFactor" : 0.6732679605484009
            }
        },
        {
            "doubleSided" : true,
            "emissiveFactor" : [
                0,
                0,
                0
            ],
            "name" : "sholder_blue",
            "pbrMetallicRoughness" : {
                "baseColorFactor" : [
                    1,
                    1,
                    1,
                    1
                ],
                "metallicFactor" : 0,
                "roughnessFactor" : 0.6732679605484009
            }
        },
        {
            "doubleSided" : true,
            "emissiveFactor" : [
                0,
                0,
                0
            ],
            "name" : "ArwingJet1",
            "pbrMetallicRoughness" : {
                "baseColorFactor" : [
                    1,
                    1,
                    1,
                    1
                ],
                "metallicFactor" : 0,
                "roughnessFactor" : 0.6732679605484009
            }
        }
    ],
    "meshes" : [
        {
            "name" : "polygon5",
            "primitives" : [
                {
                    "attributes" : {
                        "POSITION" : 0,
                        "NORMAL" : 1,
                        "TEXCOORD_0" : 2
                    },
                    "indices" : 3,
                    "material" : 0
                }
            ]
        },
        {
            "name" : "polygon0",
            "primitives" : [
                {
                    "attributes" : {
                        "POSITION" : 4,
                        "NORMAL" : 5,
                        "TEXCOORD_0" : 6
                    },
                    "indices" : 7,
                    "material" : 1
                }
            ]
        },
        {
            "name" : "polygon14",
            "primitives" : [
                {
                    "attributes" : {
                        "POSITION" : 8,
                        "NORMAL" : 9,
                        "TEXCOORD_0" : 10
                    },
                    "indices" : 11,
                    "material" : 2
                }
            ]
        },
        {
            "name" : "polygon36",
            "primitives" : [
                {
                    "attributes" : {
                        "POSITION" : 12,
                        "NORMAL" : 13,
                        "TEXCOORD_0" : 14
                    },
                    "indices" : 15,
                    "material" : 3
                }
            ]
        },
        {
            "name" : "polygon37",
            "primitives" : [
                {
                    "attributes" : {
                        "POSITION" : 16,
                        "NORMAL" : 17,
                        "TEXCOORD_0" : 18
                    },
                    "indices" : 19,
                    "material" : 3
                }
            ]
        }
    ],
    "accessors" : [
        {
            "bufferView" : 0,
            "componentType" : 5126,
            "count" : 10,
            "max" : [
                4.220300197601318,
                -2.422300100326538,
                -10.231599807739258
            ],
            "min" : [
                -4.220200061798096,
                -17.85260009765625,
                -17.960500717163086
            ],
            "type" : "VEC3"
        },
        {
            "bufferView" : 1,
            "componentType" : 5126,
            "count" : 10,
            "type" : "VEC3"
        },
        {
            "bufferView" : 2,
            "componentType" : 5126,
            "count" : 10,
            "type" : "VEC2"
        },
        {
            "bufferView" : 3,
            "componentType" : 5123,
            "count" : 18,
            "type" : "SCALAR"
        },
        {
            "bufferView" : 4,
            "componentType" : 5126,
            "count" : 1272,
            "max" : [
                66.97250366210938,
                39.735198974609375,
                12.134400367736816
            ],
            "min" : [
                -66.97250366210938,
                -44.950599670410156,
                -20.57710075378418
            ],
            "type" : "VEC3"
        },
        {
            "bufferView" : 5,
            "componentType" : 5126,
            "count" : 1272,
            "type" : "VEC3"
        },
        {
            "bufferView" : 6,
            "componentType" : 5126,
            "count" : 1272,
            "type" : "VEC2"
        },
        {
            "bufferView" : 7,
            "componentType" : 5123,
            "count" : 2562,
            "type" : "SCALAR"
        },
        {
            "bufferView" : 8,
            "componentType" : 5126,
            "count" : 147,
            "max" : [
                18.930200576782227,
                19.337499618530273,
                8.908949851989746
            ],
            "min" : [
                -18.930099487304688,
                -44.950599670410156,
                -20.57710075378418
            ],
            "type" : "VEC3"
        },
        {
            "bufferView" : 9,
            "componentType" : 5126,
            "count" : 147,
            "type" : "VEC3"
        },
        {
            "bufferView" : 10,
            "componentType" : 5126,
            "count" : 147,
            "type" : "VEC2"
        },
        {
            "bufferView" : 11,
            "componentType" : 5123,
            "count" : 384,
            "type" : "SCALAR"
        },
        {
            "bufferView" : 12,
            "componentType" : 5126,
            "count" : 81,
            "max" : [
                6.354800224304199,
                -25.097999572753906,
                0.4105280041694641
            ],
            "min" : [
                -6.354700088500977,
                -38.10350036621094,
                -8.921090126037598
            ],
            "type" : "VEC3"
        },
        {
            "bufferView" : 13,
            "componentType" : 5126,
            "count" : 81,
            "type" : "VEC3"
        },
        {
            "bufferView" : 14,
            "componentType" : 5126,
            "count" : 81,
            "type" : "VEC2"
        },
        {
            "bufferView" : 15,
            "componentType" : 5123,
            "count" : 432,
            "type" : "SCALAR"
        },
        {
            "bufferView" : 16,
            "componentType" : 5126,
            "count" : 5,
            "max" : [
                9.277299880981445,
                -27.684499740600586,
                3.3398399353027344
            ],
            "min" : [
                -9.277199745178223,
                -30.481399536132812,
                -11.850399017333984
            ],
            "type" : "VEC3"
        },
        {
            "bufferView" : 17,
            "componentType" : 5126,
            "count" : 5,
            "type" : "VEC3"
        },
        {
            "bufferView" : 18,
            "componentType" : 5126,
            "count" : 5,
            "type" : "VEC2"
        },
        {
            "bufferView" : 19,
            "componentType" : 5123,
            "count" : 12,
            "type" : "SCALAR"
        }
    ],
    "bufferViews" : [
        {
            "buffer" : 0,
            "byteLength" : 120,
            "byteOffset" : 0
        },
        {
            "buffer" : 0,
            "byteLength" : 120,
            "byteOffset" : 120
        },
        {
            "buffer" : 0,
            "byteLength" : 80,
            "byteOffset" : 240
        },
        {
            "buffer" : 0,
            "byteLength" : 36,
            "byteOffset" : 320
        },
        {
            "buffer" : 0,
            "byteLength" : 15264,
            "byteOffset" : 356
        },
        {
            "buffer" : 0,
            "byteLength" : 15264,
            "byteOffset" : 15620
        },
        {
            "buffer" : 0,
            "byteLength" : 10176,
            "byteOffset" : 30884
        },
        {
            "buffer" : 0,
            "byteLength" : 5124,
            "byteOffset" : 41060
        },
        {
            "buffer" : 0,
            "byteLength" : 1764,
            "byteOffset" : 46184
        },
        {
            "buffer" : 0,
            "byteLength" : 1764,
            "byteOffset" : 47948
        },
        {
            "buffer" : 0,
            "byteLength" : 1176,
            "byteOffset" : 49712
        },
        {
            "buffer" : 0,
            "byteLength" : 768,
            "byteOffset" : 50888
        },
        {
            "buffer" : 0,
            "byteLength" : 972,
            "byteOffset" : 51656
        },
        {
            "buffer" : 0,
            "byteLength" : 972,
            "byteOffset" : 52628
        },
        {
            "buffer" : 0,
            "byteLength" : 648,
            "byteOffset" : 53600
        },
        {
            "buffer" : 0,
            "byteLength" : 864,
            "byteOffset" : 54248
        },
        {
            "buffer" : 0,
            "byteLength" : 60,
            "byteOffset" : 55112
        },
        {
            "buffer" : 0,
            "byteLength" : 60,
            "byteOffset" : 55172
        },
        {
            "buffer" : 0,
            "byteLength" : 40,
            "byteOffset" : 55232
        },
        {
            "buffer" : 0,
            "byteLength" : 24,
            "byteOffset" : 55272
        }
    ],
    "buffers" : [
        {
            "byteLength" : 55296,
            "uri" : "arwing.bin"
        }
    ]
}
