{
    "asset" : {
        "generator" : "Khronos glTF Blender I/O v1.2.75",
        "version" : "2.0"
    },
    "scene" : 0,
    "scenes" : [
        {
            "name" : "Scene",
            "nodes" : [
                0
            ]
        }
    ],
    "nodes" : [
        {
            "mesh" : 0,
            "name" : "AndrossBrain",
            "rotation" : [
                0.7071068286895752,
                0,
                0,
                0.7071067094802856
            ]
        }
    ],
    "materials" : [
        {
            "doubleSided" : true,
            "emissiveFactor" : [
                0,
                0,
                0
            ],
            "name" : "M_6787046D_c",
            "pbrMetallicRoughness" : {
                "baseColorTexture" : {
                    "index" : 0,
                    "texCoord" : 0
                },
                "metallicFactor" : 0,
                "roughnessFactor" : 1
            }
        },
        {
            "doubleSided" : true,
            "emissiveFactor" : [
                0,
                0,
                0
            ],
            "name" : "M_2B8B7610_c",
            "pbrMetallicRoughness" : {
                "baseColorTexture" : {
                    "index" : 1,
                    "texCoord" : 0
                },
                "metallicFactor" : 0,
                "roughnessFactor" : 1
            }
        },
        {
            "doubleSided" : true,
            "emissiveFactor" : [
                0,
                0,
                0
            ],
            "name" : "M_2C636FCC_c",
            "pbrMetallicRoughness" : {
                "baseColorTexture" : {
                    "index" : 2,
                    "texCoord" : 0
                },
                "metallicFactor" : 0,
                "roughnessFactor" : 1
            }
        },
        {
            "doubleSided" : true,
            "emissiveFactor" : [
                0,
                0,
                0
            ],
            "name" : "M_650E481F_c",
            "pbrMetallicRoughness" : {
                "baseColorTexture" : {
                    "index" : 3,
                    "texCoord" : 0
                },
                "metallicFactor" : 0,
                "roughnessFactor" : 1
            }
        }
    ],
    "meshes" : [
        {
            "name" : "AndrossBrain",
            "primitives" : [
                {
                    "attributes" : {
                        "POSITION" : 0,
                        "NORMAL" : 1,
                        "TEXCOORD_0" : 2
                    },
                    "indices" : 3,
                    "material" : 0
                },
                {
                    "attributes" : {
                        "POSITION" : 4,
                        "NORMAL" : 5,
                        "TEXCOORD_0" : 6
                    },
                    "indices" : 7,
                    "material" : 1
                },
                {
                    "attributes" : {
                        "POSITION" : 8,
                        "NORMAL" : 9,
                        "TEXCOORD_0" : 10
                    },
                    "indices" : 11,
                    "material" : 2
                },
                {
                    "attributes" : {
                        "POSITION" : 12,
                        "NORMAL" : 13,
                        "TEXCOORD_0" : 14
                    },
                    "indices" : 15,
                    "material" : 3
                }
            ]
        }
    ],
    "textures" : [
        {
            "source" : 0
        },
        {
            "source" : 1
        },
        {
            "source" : 2
        },
        {
            "source" : 3
        }
    ],
    "images" : [
        {
            "mimeType" : "image/png",
            "name" : "M_6787046D_c",
            "uri" : "M_6787046D_c.png"
        },
        {
            "mimeType" : "image/png",
            "name" : "M_2B8B7610_c",
            "uri" : "M_2B8B7610_c.png"
        },
        {
            "mimeType" : "image/png",
            "name" : "M_2C636FCC_c",
            "uri" : "M_2C636FCC_c.png"
        },
        {
            "mimeType" : "image/png",
            "name" : "M_650E481F_c",
            "uri" : "M_650E481F_c.png"
        }
    ],
    "accessors" : [
        {
            "bufferView" : 0,
            "componentType" : 5126,
            "count" : 323,
            "max" : [
                12.026599884033203,
                12.959699630737305,
                3.5274600982666016
            ],
            "min" : [
                -11.595100402832031,
                -8.950889587402344,
                -4.9040398597717285
            ],
            "type" : "VEC3"
        },
        {
            "bufferView" : 1,
            "componentType" : 5126,
            "count" : 323,
            "type" : "VEC3"
        },
        {
            "bufferView" : 2,
            "componentType" : 5126,
            "count" : 323,
            "type" : "VEC2"
        },
        {
            "bufferView" : 3,
            "componentType" : 5123,
            "count" : 1104,
            "type" : "SCALAR"
        },
        {
            "bufferView" : 4,
            "componentType" : 5126,
            "count" : 153,
            "max" : [
                17.495100021362305,
                18.127099990844727,
                -1.1457699537277222
            ],
            "min" : [
                -17.09000015258789,
                -19.079999923706055,
                -25.108800888061523
            ],
            "type" : "VEC3"
        },
        {
            "bufferView" : 5,
            "componentType" : 5126,
            "count" : 153,
            "type" : "VEC3"
        },
        {
            "bufferView" : 6,
            "componentType" : 5126,
            "count" : 153,
            "type" : "VEC2"
        },
        {
            "bufferView" : 7,
            "componentType" : 5123,
            "count" : 654,
            "type" : "SCALAR"
        },
        {
            "bufferView" : 8,
            "componentType" : 5126,
            "count" : 51,
            "max" : [
                12.165900230407715,
                0.6794289946556091,
                1.223520040512085
            ],
            "min" : [
                -12.335599899291992,
                -16.988300323486328,
                -10.693400382995605
            ],
            "type" : "VEC3"
        },
        {
            "bufferView" : 9,
            "componentType" : 5126,
            "count" : 51,
            "type" : "VEC3"
        },
        {
            "bufferView" : 10,
            "componentType" : 5126,
            "count" : 51,
            "type" : "VEC2"
        },
        {
            "bufferView" : 11,
            "componentType" : 5123,
            "count" : 150,
            "type" : "SCALAR"
        },
        {
            "bufferView" : 12,
            "componentType" : 5126,
            "count" : 1200,
            "max" : [
                7.656499862670898,
                7.586520195007324,
                9.931400299072266
            ],
            "min" : [
                -6.596650123596191,
                -3.4075798988342285,
                -7.642620086669922
            ],
            "type" : "VEC3"
        },
        {
            "bufferView" : 13,
            "componentType" : 5126,
            "count" : 1200,
            "type" : "VEC3"
        },
        {
            "bufferView" : 14,
            "componentType" : 5126,
            "count" : 1200,
            "type" : "VEC2"
        },
        {
            "bufferView" : 15,
            "componentType" : 5123,
            "count" : 1800,
            "type" : "SCALAR"
        }
    ],
    "bufferViews" : [
        {
            "buffer" : 0,
            "byteLength" : 3876,
            "byteOffset" : 0
        },
        {
            "buffer" : 0,
            "byteLength" : 3876,
            "byteOffset" : 3876
        },
        {
            "buffer" : 0,
            "byteLength" : 2584,
            "byteOffset" : 7752
        },
        {
            "buffer" : 0,
            "byteLength" : 2208,
            "byteOffset" : 10336
        },
        {
            "buffer" : 0,
            "byteLength" : 1836,
            "byteOffset" : 12544
        },
        {
            "buffer" : 0,
            "byteLength" : 1836,
            "byteOffset" : 14380
        },
        {
            "buffer" : 0,
            "byteLength" : 1224,
            "byteOffset" : 16216
        },
        {
            "buffer" : 0,
            "byteLength" : 1308,
            "byteOffset" : 17440
        },
        {
            "buffer" : 0,
            "byteLength" : 612,
            "byteOffset" : 18748
        },
        {
            "buffer" : 0,
            "byteLength" : 612,
            "byteOffset" : 19360
        },
        {
            "buffer" : 0,
            "byteLength" : 408,
            "byteOffset" : 19972
        },
        {
            "buffer" : 0,
            "byteLength" : 300,
            "byteOffset" : 20380
        },
        {
            "buffer" : 0,
            "byteLength" : 14400,
            "byteOffset" : 20680
        },
        {
            "buffer" : 0,
            "byteLength" : 14400,
            "byteOffset" : 35080
        },
        {
            "buffer" : 0,
            "byteLength" : 9600,
            "byteOffset" : 49480
        },
        {
            "buffer" : 0,
            "byteLength" : 3600,
            "byteOffset" : 59080
        }
    ],
    "buffers" : [
        {
            "byteLength" : 62680,
            "uri" : "brain.bin"
        }
    ]
}
